<svg width="137.401" height="66.901" viewBox="0 0 137.401 66.901" xmlns="http://www.w3.org/2000/svg"><g id="svgGroup" stroke-linecap="round" fill-rule="evenodd" font-size="9pt" stroke="#000" stroke-width="0.25mm" fill="#000" style="stroke:#000;stroke-width:0.25mm;fill:#000"><path d="M 50.9 57.4 L 50.9 18.4 L 57.8 18.4 L 57.8 66.9 L 50.9 66.9 L 50.9 63.6 Q 49.8 66.9 45.4 66.9 L 41.4 66.9 A 11.373 11.373 0 0 1 38.274 66.508 Q 34.768 65.504 33.837 61.926 A 11.639 11.639 0 0 1 33.5 59 L 33.5 18.4 L 40.4 18.4 L 40.4 57.9 A 10.411 10.411 0 0 0 40.429 58.706 Q 40.531 60.02 41 60.45 A 1.469 1.469 0 0 0 41.44 60.716 Q 42.131 60.999 43.486 61 A 12.852 12.852 0 0 0 43.5 61 L 47.5 61 A 6.391 6.391 0 0 0 48.432 60.937 Q 48.901 60.868 49.275 60.722 A 2.359 2.359 0 0 0 50.1 60.2 A 2.24 2.24 0 0 0 50.58 59.451 Q 50.9 58.666 50.9 57.4 Z M 97.6 58 L 97.6 48.8 Q 97.6 47.416 97.281 46.721 A 1.435 1.435 0 0 0 97 46.3 A 1.481 1.481 0 0 0 96.529 45.997 Q 95.836 45.7 94.5 45.7 L 89.6 45.7 A 11.373 11.373 0 0 1 86.474 45.308 Q 82.968 44.304 82.037 40.726 A 11.639 11.639 0 0 1 81.7 37.8 L 81.7 26.3 A 11.373 11.373 0 0 1 82.092 23.174 Q 83.096 19.668 86.674 18.737 A 11.639 11.639 0 0 1 89.6 18.4 L 96.4 18.4 A 11.373 11.373 0 0 1 99.526 18.792 Q 103.032 19.796 103.963 23.374 A 11.639 11.639 0 0 1 104.3 26.3 L 104.3 31.2 L 97.5 31.2 L 97.5 27.3 A 11.354 11.354 0 0 0 97.474 26.494 Q 97.388 25.302 97.027 24.838 A 0.941 0.941 0 0 0 96.95 24.75 A 1.271 1.271 0 0 0 96.541 24.49 Q 95.902 24.221 94.602 24.201 A 13.745 13.745 0 0 0 94.4 24.2 L 91.6 24.2 A 11.354 11.354 0 0 0 90.794 24.226 Q 89.602 24.312 89.138 24.673 A 0.941 0.941 0 0 0 89.05 24.75 A 1.271 1.271 0 0 0 88.79 25.159 Q 88.521 25.798 88.501 27.098 A 13.745 13.745 0 0 0 88.5 27.3 L 88.5 36.8 A 10.4 10.4 0 0 0 88.526 37.569 Q 88.62 38.831 89.05 39.3 Q 89.583 39.881 91.475 39.899 A 12.878 12.878 0 0 0 91.6 39.9 L 96.5 39.9 A 11.373 11.373 0 0 1 99.626 40.292 Q 103.132 41.296 104.063 44.874 A 11.639 11.639 0 0 1 104.4 47.8 L 104.4 59 A 11.373 11.373 0 0 1 104.008 62.126 Q 103.004 65.632 99.426 66.563 A 11.639 11.639 0 0 1 96.5 66.9 L 89.8 66.9 A 11.373 11.373 0 0 1 86.674 66.508 Q 83.168 65.504 82.237 61.926 A 11.639 11.639 0 0 1 81.9 59 L 81.9 54.1 L 88.7 54.1 L 88.7 58 A 10.4 10.4 0 0 0 88.726 58.769 Q 88.82 60.031 89.25 60.5 Q 89.783 61.081 91.675 61.099 A 12.878 12.878 0 0 0 91.8 61.1 L 94.5 61.1 Q 95.884 61.1 96.579 60.781 A 1.435 1.435 0 0 0 97 60.5 A 1.481 1.481 0 0 0 97.303 60.029 Q 97.6 59.336 97.6 58 Z M 120.3 18.4 L 129.5 18.4 A 11.373 11.373 0 0 1 132.626 18.792 Q 136.132 19.796 137.063 23.374 A 11.639 11.639 0 0 1 137.4 26.3 L 137.4 45 L 119.3 45 L 119.3 57.9 A 10.411 10.411 0 0 0 119.329 58.706 Q 119.431 60.02 119.9 60.45 A 1.469 1.469 0 0 0 120.34 60.716 Q 121.031 60.999 122.386 61 A 12.852 12.852 0 0 0 122.4 61 L 127.1 61 A 11.354 11.354 0 0 0 127.906 60.974 Q 129.098 60.888 129.562 60.527 A 0.941 0.941 0 0 0 129.65 60.45 A 1.271 1.271 0 0 0 129.91 60.041 Q 130.179 59.402 130.199 58.102 A 13.745 13.745 0 0 0 130.2 57.9 L 130.2 53.5 L 137.1 53.5 L 137.1 59 A 11.373 11.373 0 0 1 136.708 62.126 Q 135.704 65.632 132.126 66.563 A 11.639 11.639 0 0 1 129.2 66.9 L 120.3 66.9 A 11.373 11.373 0 0 1 117.174 66.508 Q 113.668 65.504 112.737 61.926 A 11.639 11.639 0 0 1 112.4 59 L 112.4 26.3 A 11.373 11.373 0 0 1 112.792 23.174 Q 113.796 19.668 117.374 18.737 A 11.639 11.639 0 0 1 120.3 18.4 Z M 0 66.9 L 0 4.7 L 18.1 4.7 A 11.373 11.373 0 0 1 21.226 5.092 Q 24.732 6.096 25.663 9.674 A 11.639 11.639 0 0 1 26 12.6 L 26 34 A 11.373 11.373 0 0 1 25.608 37.126 Q 24.604 40.632 21.026 41.563 A 11.639 11.639 0 0 1 18.1 41.9 L 6.8 41.9 L 6.8 66.9 L 0 66.9 Z M 73.7 0 L 73.7 66.9 L 66.8 66.9 L 66.8 0 L 73.7 0 Z M 19.2 32.9 L 19.2 13.7 A 11.354 11.354 0 0 0 19.174 12.894 Q 19.088 11.702 18.727 11.238 A 0.941 0.941 0 0 0 18.65 11.15 A 1.271 1.271 0 0 0 18.241 10.89 Q 17.602 10.621 16.302 10.601 A 13.745 13.745 0 0 0 16.1 10.6 L 6.8 10.6 L 6.8 36 L 16.1 36 A 11.354 11.354 0 0 0 16.906 35.974 Q 18.098 35.888 18.562 35.527 A 0.941 0.941 0 0 0 18.65 35.45 A 1.271 1.271 0 0 0 18.91 35.041 Q 19.179 34.402 19.199 33.102 A 13.745 13.745 0 0 0 19.2 32.9 Z M 119.3 27.4 L 119.3 39.1 L 130.5 39.1 L 130.5 27.4 Q 130.5 26.016 130.181 25.321 A 1.435 1.435 0 0 0 129.9 24.9 A 1.481 1.481 0 0 0 129.429 24.597 Q 128.736 24.3 127.4 24.3 L 122.4 24.3 Q 121.016 24.3 120.321 24.619 A 1.435 1.435 0 0 0 119.9 24.9 A 1.481 1.481 0 0 0 119.597 25.371 Q 119.3 26.064 119.3 27.4 Z" vector-effect="non-scaling-stroke"/></g></svg>