<svg id="visual" viewBox="0 0 960 540" width="960" height="540" xmlns="http://www.w3.org/2000/svg" xmlns:xlink="http://www.w3.org/1999/xlink" version="1.1"><rect x="0" y="0" width="960" height="540" fill="#D1F4FA"></rect><defs><linearGradient id="grad1_0" x1="43.8%" y1="0%" x2="100%" y2="100%"><stop offset="14.444444444444446%" stop-color="#d1f4fa" stop-opacity="1"></stop><stop offset="85.55555555555554%" stop-color="#d1f4fa" stop-opacity="1"></stop></linearGradient></defs><defs><linearGradient id="grad2_0" x1="0%" y1="0%" x2="56.3%" y2="100%"><stop offset="14.444444444444446%" stop-color="#d1f4fa" stop-opacity="1"></stop><stop offset="85.55555555555554%" stop-color="#d1f4fa" stop-opacity="1"></stop></linearGradient></defs><g transform="translate(960, 0)"><path d="M0 378C-54.3 377.5 -108.5 376.9 -144.7 349.2C-180.8 321.5 -198.8 266.6 -229.1 229.1C-259.4 191.6 -302 171.5 -328.9 136.2C-355.8 101 -366.9 50.5 -378 0L0 0Z" fill="#a365c9"></path></g><g transform="translate(0, 540)"><path d="M0 -378C48.9 -361.9 97.9 -345.7 131.6 -317.8C165.4 -289.9 184.1 -250.3 222.7 -222.7C261.4 -195.2 320 -179.8 349.2 -144.7C378.4 -109.5 378.2 -54.8 378 0L0 0Z" fill="#a365c9"></path></g></svg>