<svg width="48" height="48" viewBox="0 0 48 48" fill="none" xmlns="http://www.w3.org/2000/svg">
<g clip-path="url(#clip0_5_4)">
<path d="M24 42.4641L29.1549 37.3091H37.9652V28.3114L42.6515 23.6251L37.9652 19.0325V10.1285H29.0612L24 5.06727L18.9388 10.1285H10.3159V19.0325L5.62962 23.7188L10.3159 28.4051V37.3091H18.9388L24 42.4641ZM24 34.966V12.6591C27.0617 12.6591 29.6704 13.7435 31.8261 15.9122C33.9819 18.0809 35.0597 20.7144 35.0597 23.8125C35.0597 26.9107 33.9844 29.5442 31.8339 31.7129C29.6835 33.8816 27.0722 34.966 24 34.966ZM-7.86697 53.9924C-9.36659 53.9924 -10.6788 53.4301 -11.8035 52.3054C-12.9282 51.1806 -13.4906 49.8685 -13.4906 48.3689V-0.368857C-13.4906 -1.86848 -12.9282 -3.18065 -11.8035 -4.30536C-10.6788 -5.43008 -9.36659 -5.99244 -7.86697 -5.99244H55.867C57.3666 -5.99244 58.6788 -5.43008 59.8035 -4.30536C60.9282 -3.18065 61.4905 -1.86848 61.4905 -0.368857V48.3689C61.4905 49.8685 60.9282 51.1806 59.8035 52.3054C58.6788 53.4301 57.3666 53.9924 55.867 53.9924H-7.86697ZM-7.86697 48.3689H55.867V-0.368857H-7.86697V48.3689Z" fill="black"/>
</g>
<defs>
<clipPath id="clip0_5_4">
<rect width="48" height="48" fill="white"/>
</clipPath>
</defs>
</svg>
