<svg width="1080" height="1080" viewBox="0 0 1080 1080" fill="none" xmlns="http://www.w3.org/2000/svg">
<mask id="path-1-inside-1_106_6" fill="white">
<path d="M195.086 184.996C195.086 173.95 204.04 164.996 215.086 164.996H585.086C596.132 164.996 605.086 173.95 605.086 184.996V554.996C605.086 566.042 596.132 574.996 585.086 574.996H215.086C204.04 574.996 195.086 566.042 195.086 554.996V184.996Z"/>
</mask>
<path d="M125.086 184.996C125.086 135.29 165.381 94.9961 215.086 94.9961H585.086C634.792 94.9961 675.086 135.29 675.086 184.996L535.086 234.996H265.086L125.086 184.996ZM675.086 554.996C675.086 604.702 634.792 644.996 585.086 644.996H215.086C165.381 644.996 125.086 604.702 125.086 554.996L265.086 504.996H535.086L675.086 554.996ZM215.086 644.996C165.381 644.996 125.086 604.702 125.086 554.996V184.996C125.086 135.29 165.381 94.9961 215.086 94.9961L265.086 234.996V504.996L215.086 644.996ZM585.086 94.9961C634.792 94.9961 675.086 135.29 675.086 184.996V554.996C675.086 604.702 634.792 644.996 585.086 644.996L535.086 504.996V234.996L585.086 94.9961Z" fill="#7B1FF3" mask="url(#path-1-inside-1_106_6)"/>
<mask id="path-3-inside-2_106_6" fill="white">
<path d="M534.914 525.004C534.914 513.958 543.868 505.004 554.914 505.004H864.914C875.96 505.004 884.914 513.958 884.914 525.004V895.004C884.914 906.05 875.96 915.004 864.914 915.004H554.914C543.868 915.004 534.914 906.05 534.914 895.004V525.004Z"/>
</mask>
<path d="M464.914 525.004C464.914 475.298 505.208 435.004 554.914 435.004H794.914C844.619 435.004 884.914 475.298 884.914 525.004V575.004C884.914 575.004 875.96 575.004 864.914 575.004H604.914L464.914 525.004ZM884.914 895.004C884.914 944.71 844.619 985.004 794.914 985.004H554.914C505.208 985.004 464.914 944.71 464.914 895.004L604.914 845.004H864.914C875.96 845.004 884.914 845.004 884.914 845.004V895.004ZM554.914 985.004C505.208 985.004 464.914 944.71 464.914 895.004V525.004C464.914 475.298 505.208 435.004 554.914 435.004L604.914 575.004V845.004L554.914 985.004ZM884.914 505.004V915.004V505.004Z" fill="#7B1FF3" mask="url(#path-3-inside-2_106_6)"/>
<mask id="path-5-inside-3_106_6" fill="white">
<path d="M195.086 525.004C195.086 513.958 204.04 505.004 215.086 505.004H525.086C536.132 505.004 545.086 513.958 545.086 525.004V895.004C545.086 906.05 536.132 915.004 525.086 915.004H215.086C204.04 915.004 195.086 906.05 195.086 895.004V525.004Z"/>
</mask>
<path d="M125.086 525.004C125.086 475.298 165.381 435.004 215.086 435.004H455.086C504.792 435.004 545.086 475.298 545.086 525.004V575.004C545.086 575.004 536.132 575.004 525.086 575.004H265.086L125.086 525.004ZM545.086 915.004H195.086H545.086ZM215.086 915.004C165.381 915.004 125.086 874.71 125.086 825.004V525.004C125.086 475.298 165.381 435.004 215.086 435.004L265.086 575.004V895.004C265.086 906.05 265.086 915.004 265.086 915.004H215.086ZM545.086 505.004V915.004V505.004Z" fill="#7B1FF3" mask="url(#path-5-inside-3_106_6)"/>
</svg>
