<svg width="80" height="15" viewBox="0 0 80 15" fill="none" xmlns="http://www.w3.org/2000/svg">
<path d="M16.498 11.0215C16.4863 11.0293 16.4336 11.0566 16.3398 11.1035C16.2461 11.1504 16.123 11.2012 15.9707 11.2559C15.8184 11.3105 15.6445 11.3594 15.4492 11.4023C15.2539 11.4492 15.0508 11.4727 14.8398 11.4727C14.4961 11.4727 14.1875 11.4121 13.9141 11.291C13.6406 11.1699 13.4082 10.998 13.2168 10.7754C13.0293 10.5566 12.8848 10.291 12.7832 9.97852C12.6816 9.66992 12.6309 9.32617 12.6309 8.94727C12.6309 8.58398 12.6758 8.18555 12.7656 7.75195C12.8555 7.31445 12.9727 6.86523 13.1172 6.4043C13.2617 5.94336 13.4238 5.48242 13.6035 5.02148C13.7871 4.56055 13.9707 4.12305 14.1543 3.70898C14.3418 3.29102 14.5195 2.91016 14.6875 2.56641C14.8555 2.21875 15 1.92969 15.1211 1.69922C14.9023 1.94922 14.6523 2.23828 14.3711 2.56641C14.0898 2.89062 13.7891 3.24805 13.4688 3.63867C13.1523 4.02539 12.8223 4.43945 12.4785 4.88086C12.1348 5.31836 11.7871 5.77539 11.4355 6.25195C11.0879 6.72461 10.7422 7.21094 10.3984 7.71094C10.0547 8.20703 9.72656 8.70703 9.41406 9.21094L9.13281 9.11719C9.19141 8.48047 9.28711 7.84961 9.41992 7.22461C9.55664 6.5957 9.70898 5.99219 9.87695 5.41406C10.0488 4.83203 10.2285 4.28711 10.416 3.7793C10.6074 3.26758 10.7891 2.81055 10.9609 2.4082C10.6992 2.76758 10.4375 3.1582 10.1758 3.58008C9.91797 3.99805 9.65625 4.42969 9.39062 4.875C9.125 5.31641 8.85156 5.76172 8.57031 6.21094C8.28906 6.65625 7.99609 7.08594 7.69141 7.5C7.38672 7.91016 7.06445 8.29492 6.72461 8.6543C6.38867 9.00977 6.0293 9.31836 5.64648 9.58008C5.26758 9.8457 4.86133 10.0547 4.42773 10.207C3.99805 10.3594 3.53711 10.4355 3.04492 10.4355C2.66602 10.4355 2.32227 10.3789 2.01367 10.2656C1.70508 10.1523 1.43945 9.99609 1.2168 9.79688C0.998047 9.60156 0.830078 9.37109 0.712891 9.10547C0.591797 8.83984 0.53125 8.55273 0.53125 8.24414C0.53125 7.94336 0.580078 7.67188 0.677734 7.42969C0.771484 7.18359 0.898438 6.9668 1.05859 6.7793C1.21875 6.58789 1.4043 6.42383 1.61523 6.28711C1.83008 6.14648 2.05469 6.03125 2.28906 5.94141C2.52344 5.85156 2.75977 5.78516 2.99805 5.74219C3.24023 5.69922 3.4707 5.67773 3.68945 5.67773C4.14258 5.67773 4.57617 5.73242 4.99023 5.8418C5.4043 5.94727 5.80273 6.13672 6.18555 6.41016L5.98047 6.63867C5.97656 6.63477 5.92578 6.59961 5.82812 6.5332C5.73047 6.46289 5.58984 6.38672 5.40625 6.30469C5.22266 6.22266 4.99414 6.14844 4.7207 6.08203C4.45117 6.01562 4.14258 5.98242 3.79492 5.98242C3.45898 5.98242 3.13281 6.02734 2.81641 6.11719C2.50391 6.20703 2.22656 6.34375 1.98438 6.52734C1.74609 6.70703 1.55469 6.93555 1.41016 7.21289C1.26562 7.48633 1.19336 7.80859 1.19336 8.17969C1.19336 8.44531 1.24414 8.69141 1.3457 8.91797C1.45117 9.14453 1.5957 9.33984 1.7793 9.50391C1.96289 9.67188 2.18359 9.80273 2.44141 9.89648C2.69922 9.99023 2.98438 10.0371 3.29688 10.0371C3.76562 10.0371 4.21484 9.9375 4.64453 9.73828C5.07422 9.53906 5.48828 9.26953 5.88672 8.92969C6.28516 8.58984 6.66797 8.19336 7.03516 7.74023C7.40625 7.28711 7.76172 6.80859 8.10156 6.30469C8.44531 5.80078 8.77734 5.2832 9.09766 4.75195C9.41797 4.2207 9.72852 3.70898 10.0293 3.2168C10.3301 2.7207 10.623 2.25781 10.9082 1.82812C11.1934 1.39453 11.4727 1.02148 11.7461 0.708984L12.0098 0.867188C11.8379 1.39062 11.6895 1.85156 11.5645 2.25C11.4395 2.64453 11.3301 2.99219 11.2363 3.29297C11.1465 3.59375 11.0684 3.85352 11.002 4.07227C10.9395 4.29102 10.8848 4.48633 10.8379 4.6582C10.791 4.83008 10.748 4.98633 10.709 5.12695C10.6738 5.26367 10.6367 5.40039 10.5977 5.53711C10.5625 5.67383 10.5215 5.81836 10.4746 5.9707C10.4277 6.12305 10.3711 6.30078 10.3047 6.50391C10.2383 6.70312 10.1602 6.93555 10.0703 7.20117C9.98047 7.46289 9.87109 7.77344 9.74219 8.13281C10.0703 7.63672 10.4062 7.14844 10.75 6.66797C11.0977 6.1875 11.4434 5.72266 11.7871 5.27344C12.1309 4.82422 12.4668 4.39453 12.7949 3.98438C13.127 3.57422 13.4395 3.19336 13.7324 2.8418C14.0293 2.49023 14.3008 2.17188 14.5469 1.88672C14.7969 1.59766 15.0137 1.35156 15.1973 1.14844C15.3809 0.945312 15.5234 0.787109 15.625 0.673828C15.7305 0.560547 15.7852 0.501953 15.7891 0.498047L16.0352 0.679688C15.8047 1.25 15.5762 1.82227 15.3496 2.39648C15.123 2.9668 14.9043 3.52344 14.6934 4.06641C14.4863 4.60938 14.293 5.13281 14.1133 5.63672C13.9336 6.14062 13.7773 6.61328 13.6445 7.05469C13.5117 7.49219 13.4062 7.89258 13.3281 8.25586C13.2539 8.61523 13.2168 8.92383 13.2168 9.18164C13.2168 9.48633 13.252 9.76172 13.3223 10.0078C13.3965 10.2539 13.502 10.4629 13.6387 10.6348C13.7754 10.8066 13.9434 10.9375 14.1426 11.0273C14.3457 11.1211 14.5742 11.168 14.8281 11.168C15.0195 11.168 15.2051 11.1465 15.3848 11.1035C15.5684 11.0605 15.7305 11.0137 15.8711 10.9629C16.0117 10.9121 16.125 10.8652 16.2109 10.8223C16.2969 10.7793 16.3418 10.7578 16.3457 10.7578L16.498 11.0215ZM18.1035 7.69336C17.9512 7.86133 17.7969 8.01758 17.6406 8.16211C17.4844 8.30273 17.3301 8.42578 17.1777 8.53125C17.0254 8.63672 16.875 8.7207 16.7266 8.7832C16.582 8.8418 16.4414 8.87109 16.3047 8.87109C16.1523 8.87109 16.0137 8.84375 15.8887 8.78906C15.7676 8.73047 15.6621 8.64844 15.5723 8.54297C15.4863 8.4375 15.4199 8.3125 15.373 8.16797C15.3262 8.02344 15.3027 7.86328 15.3027 7.6875C15.3027 7.45312 15.3516 7.20898 15.4492 6.95508C15.5469 6.70117 15.6719 6.45508 15.8242 6.2168C15.9805 5.97461 16.1523 5.74609 16.3398 5.53125C16.5312 5.31641 16.7168 5.13086 16.8965 4.97461L17.1484 5.15039C17.1016 5.2168 17.0371 5.30859 16.9551 5.42578C16.873 5.54297 16.7852 5.67969 16.6914 5.83594C16.5977 5.98828 16.502 6.1543 16.4043 6.33398C16.3105 6.51367 16.2246 6.69727 16.1465 6.88477C16.0684 7.07227 16.0039 7.25977 15.9531 7.44727C15.9062 7.63477 15.8828 7.81055 15.8828 7.97461C15.8828 8.05273 15.8887 8.12891 15.9004 8.20312C15.916 8.27344 15.9395 8.33594 15.9707 8.39062C16.0059 8.44531 16.0508 8.48828 16.1055 8.51953C16.1602 8.55078 16.2305 8.56641 16.3164 8.56641C16.4531 8.56641 16.6016 8.52539 16.7617 8.44336C16.9258 8.35742 17.0938 8.24219 17.2656 8.09766C17.4414 7.94922 17.6191 7.77734 17.7988 7.58203C17.9824 7.38672 18.1621 7.17773 18.3379 6.95508C18.5137 6.73242 18.6836 6.50391 18.8477 6.26953C19.0117 6.03125 19.1641 5.79688 19.3047 5.56641C19.4297 5.35938 19.5547 5.15234 19.6797 4.94531C19.8047 4.73438 19.9297 4.5293 20.0547 4.33008L20.3301 4.4707C20.3262 4.47852 20.2891 4.55273 20.2188 4.69336C20.1523 4.83008 20.0625 5.01758 19.9492 5.25586C19.8359 5.49023 19.7031 5.76367 19.5508 6.07617C19.4023 6.38477 19.2441 6.71484 19.0762 7.06641C18.9082 7.41406 18.7363 7.77148 18.5605 8.13867C18.3887 8.50586 18.2207 8.86328 18.0566 9.21094C18.6074 8.90625 19.1055 8.54492 19.5508 8.12695C20 7.70898 20.3848 7.27148 20.7051 6.81445L20.9219 6.97852C20.582 7.49805 20.1602 7.97852 19.6562 8.41992C19.1523 8.85742 18.5449 9.27734 17.834 9.67969C17.5098 10.375 17.1914 11.0098 16.8789 11.584C16.5703 12.1582 16.2598 12.6504 15.9473 13.0605C15.6387 13.4707 15.3301 13.7871 15.0215 14.0098C14.709 14.2363 14.3926 14.3496 14.0723 14.3496C13.8613 14.3496 13.6855 14.2793 13.5449 14.1387C13.4043 13.998 13.334 13.7969 13.334 13.5352C13.334 13.3164 13.3828 13.0918 13.4805 12.8613C13.5781 12.6309 13.7129 12.3984 13.8848 12.1641C14.0566 11.9336 14.2617 11.7031 14.5 11.4727C14.7344 11.2461 14.9922 11.0273 15.2734 10.8164C15.5508 10.6055 15.8418 10.4043 16.1465 10.2129C16.4551 10.0215 16.7676 9.8457 17.084 9.68555C17.166 9.51367 17.2539 9.33203 17.3477 9.14062C17.4414 8.95312 17.5332 8.77148 17.623 8.5957C17.7129 8.41602 17.7988 8.24805 17.8809 8.0918C17.9668 7.93164 18.041 7.79883 18.1035 7.69336ZM16.8145 10.2539C16.3652 10.5312 15.9473 10.8262 15.5605 11.1387C15.1777 11.4551 14.8457 11.7656 14.5645 12.0703C14.2793 12.3789 14.0566 12.668 13.8965 12.9375C13.7363 13.207 13.6562 13.4355 13.6562 13.623C13.6562 13.748 13.6934 13.8477 13.7676 13.9219C13.8379 13.9961 13.9297 14.0332 14.043 14.0332C14.1953 14.0332 14.3535 13.9805 14.5176 13.875C14.6777 13.7734 14.8398 13.6328 15.0039 13.4531C15.1641 13.2734 15.3242 13.0605 15.4844 12.8145C15.6445 12.5723 15.8008 12.3105 15.9531 12.0293C16.1094 11.752 16.2598 11.4609 16.4043 11.1562C16.5488 10.8555 16.6855 10.5547 16.8145 10.2539ZM40.7986 10.584C40.8626 10.632 40.8946 10.704 40.8946 10.8C40.8946 10.952 40.8186 11.108 40.6666 11.268C40.5226 11.436 40.2866 11.576 39.9586 11.688C39.6306 11.808 39.2106 11.868 38.6986 11.868C36.9626 11.868 35.2666 11.216 33.6106 9.912C31.9546 8.608 30.2826 6.904 28.5946 4.8C28.5946 4.744 28.6066 4.708 28.6306 4.692C28.6626 4.676 28.7106 4.664 28.7746 4.656C29.7666 4.576 30.5746 4.364 31.1986 4.02C31.8306 3.676 32.1466 3.204 32.1466 2.604C32.1466 2.036 31.9266 1.604 31.4866 1.308C31.0546 1.004 30.4026 0.852 29.5306 0.852C29.3306 0.852 29.1786 0.868 29.0746 0.9C28.9706 0.932 28.8986 1 28.8586 1.104C28.1706 2.968 27.3786 5.584 26.4826 8.952C26.3066 8.936 26.1546 8.968 26.0266 9.048C25.9066 9.136 25.7986 9.252 25.7026 9.396C25.6866 9.396 25.6586 9.384 25.6186 9.36C25.5866 9.344 25.5626 9.332 25.5466 9.324C26.7306 6.076 27.5866 3.38 28.1146 1.236L28.1386 1.056C28.1386 1.008 28.1226 0.98 28.0906 0.972C28.0586 0.956 28.0026 0.948 27.9226 0.948C27.5066 0.948 27.0986 1.048 26.6986 1.248C26.3066 1.448 25.9866 1.712 25.7386 2.04C25.4906 2.368 25.3666 2.716 25.3666 3.084C25.3666 3.404 25.4866 3.744 25.7266 4.104C25.5506 4.104 25.3906 4.068 25.2466 3.996C24.9106 3.82 24.7426 3.516 24.7426 3.084C24.7426 2.564 24.9546 2.104 25.3786 1.704C25.8106 1.296 26.3826 0.983999 27.0946 0.767999C27.8066 0.551999 28.5826 0.443999 29.4226 0.443999C30.4466 0.443999 31.2746 0.607999 31.9066 0.935999C32.5466 1.256 32.8666 1.724 32.8666 2.34C32.8666 2.724 32.7346 3.1 32.4706 3.468C32.2146 3.828 31.8426 4.148 31.3546 4.428C30.8666 4.7 30.2906 4.9 29.6266 5.028C30.3706 6.004 31.2306 6.972 32.2066 7.932C33.1826 8.884 34.2466 9.696 35.3986 10.368C36.5506 11.048 37.6706 11.388 38.7586 11.388C39.2546 11.388 39.6586 11.316 39.9706 11.172C40.2826 11.028 40.5586 10.832 40.7986 10.584ZM38.7553 6.132C38.8993 6.156 38.9713 6.236 38.9713 6.372C38.9713 6.692 38.7633 7.068 38.3473 7.5C37.9393 7.924 37.4553 8.292 36.8953 8.604C36.3353 8.908 35.8673 9.06 35.4913 9.06C35.1313 9.06 34.8193 8.968 34.5553 8.784C34.2913 8.592 34.0873 8.38 33.9433 8.148C33.8073 7.916 33.7393 7.744 33.7393 7.632C33.8673 7.176 34.0073 6.544 34.1593 5.736L34.2913 5.064C34.3233 4.904 34.4393 4.74 34.6393 4.572C34.8393 4.396 35.0633 4.252 35.3113 4.14C35.5593 4.02 35.7593 3.96 35.9113 3.96C36.0313 3.96 36.1753 4 36.3433 4.08C36.5193 4.152 36.6713 4.268 36.7993 4.428C36.9353 4.588 37.0033 4.792 37.0033 5.04C37.0033 5.328 36.9073 5.6 36.7153 5.856C36.5233 6.112 36.2393 6.32 35.8633 6.48C35.4873 6.64 35.0353 6.72 34.5073 6.72L34.3393 7.524C34.3393 7.596 34.3793 7.716 34.4593 7.884C34.5473 8.052 34.6833 8.204 34.8673 8.34C35.0593 8.476 35.2993 8.544 35.5873 8.544C35.9713 8.544 36.3753 8.42 36.7993 8.172C37.2233 7.916 37.6113 7.6 37.9633 7.224C38.3153 6.848 38.5793 6.484 38.7553 6.132ZM35.8153 4.452C35.7193 4.452 35.5953 4.492 35.4433 4.572C35.2913 4.652 35.1513 4.752 35.0233 4.872C34.9033 4.992 34.8313 5.104 34.8073 5.208C34.7273 5.568 34.6553 5.932 34.5913 6.3C35.2073 6.276 35.6713 6.156 35.9833 5.94C36.2953 5.716 36.4513 5.464 36.4513 5.184C36.4513 4.984 36.3793 4.812 36.2353 4.668C36.0913 4.524 35.9513 4.452 35.8153 4.452ZM38.9104 9.156C38.5264 9.156 38.1984 9.064 37.9264 8.88C37.6624 8.696 37.5304 8.484 37.5304 8.244C37.5304 8.116 37.5664 8.012 37.6384 7.932C37.7104 7.852 37.7904 7.804 37.8784 7.788C37.9664 8.092 38.1104 8.32 38.3104 8.472C38.5104 8.624 38.7544 8.7 39.0424 8.7C39.4024 8.7 39.6904 8.6 39.9064 8.4C40.1224 8.192 40.2304 7.952 40.2304 7.68C40.2304 7.48 40.1704 7.304 40.0504 7.152C39.9384 7 39.7664 6.824 39.5344 6.624C39.2784 6.4 39.0864 6.208 38.9584 6.048C38.8384 5.88 38.7784 5.68 38.7784 5.448C38.7784 5.2 38.8544 4.964 39.0064 4.74C39.1664 4.516 39.3664 4.336 39.6064 4.2C39.8544 4.064 40.1104 3.996 40.3744 3.996C40.6064 3.996 40.8184 4.048 41.0104 4.152C41.2104 4.248 41.3104 4.38 41.3104 4.548C41.3104 4.708 41.2144 4.876 41.0224 5.052C40.9184 4.868 40.7904 4.728 40.6384 4.632C40.4864 4.528 40.3264 4.476 40.1584 4.476C39.9024 4.476 39.7064 4.572 39.5704 4.764C39.4424 4.948 39.3784 5.132 39.3784 5.316C39.3784 5.468 39.4304 5.604 39.5344 5.724C39.6384 5.844 39.8024 5.996 40.0264 6.18C40.2984 6.412 40.5064 6.62 40.6504 6.804C40.7944 6.988 40.8664 7.204 40.8664 7.452C40.8664 7.716 40.7784 7.98 40.6024 8.244C40.4344 8.508 40.1984 8.728 39.8944 8.904C39.5984 9.072 39.2704 9.156 38.9104 9.156ZM47.2067 7.008C47.2467 7.064 47.2667 7.132 47.2667 7.212C47.2667 7.276 47.2547 7.332 47.2307 7.38C47.2067 7.428 47.1667 7.488 47.1107 7.56C46.9027 7.808 46.6107 8.056 46.2347 8.304C45.8667 8.544 45.4787 8.74 45.0707 8.892C44.6627 9.044 44.3067 9.12 44.0027 9.12C43.6587 9.12 43.3707 9.016 43.1387 8.808C42.9147 8.592 42.8027 8.272 42.8027 7.848C42.8027 7.312 42.9947 6.304 43.3787 4.824L42.1067 4.872C42.0907 4.864 42.0667 4.852 42.0347 4.836C42.0107 4.812 41.9947 4.792 41.9867 4.776C42.0107 4.736 42.0547 4.656 42.1187 4.536C42.1827 4.416 42.2387 4.332 42.2867 4.284L43.5227 4.296C43.7867 3.32 44.0907 2.316 44.4347 1.284C44.5787 1.172 44.7627 1.052 44.9867 0.924C45.2107 0.787999 45.3467 0.719999 45.3947 0.719999C45.4667 0.751999 45.5107 0.796 45.5267 0.852C45.3827 0.908 45.2707 0.983999 45.1907 1.08C45.1107 1.168 45.0307 1.316 44.9507 1.524C44.7187 2.116 44.4387 3.04 44.1107 4.296L47.1707 4.308L47.1827 4.5C47.1827 4.564 47.1707 4.608 47.1467 4.632C47.1227 4.656 47.0667 4.672 46.9787 4.68C46.8667 4.688 45.8667 4.728 43.9787 4.8C43.6107 6.304 43.4267 7.308 43.4267 7.812C43.4267 8.092 43.4947 8.3 43.6307 8.436C43.7667 8.564 43.9747 8.628 44.2547 8.628C45.0707 8.628 46.0547 8.088 47.2067 7.008ZM53.4559 6.228C53.5599 6.228 53.6119 6.332 53.6119 6.54C53.6119 6.908 53.4479 7.296 53.1199 7.704C52.7999 8.112 52.4079 8.456 51.9439 8.736C51.4879 9.008 51.0679 9.144 50.6839 9.144C50.3719 9.144 50.1319 9.048 49.9639 8.856C49.7959 8.664 49.6959 8.416 49.6639 8.112C49.4639 8.4 49.2119 8.636 48.9079 8.82C48.6039 9.004 48.3319 9.096 48.0919 9.096C47.8839 9.096 47.6759 9.028 47.4679 8.892C47.2679 8.748 47.1039 8.576 46.9759 8.376C46.8479 8.168 46.7799 7.972 46.7719 7.788L47.3599 5.364C47.4079 5.172 47.5279 4.968 47.7199 4.752C47.9199 4.528 48.1599 4.344 48.4399 4.2C48.7199 4.056 49.0039 3.984 49.2919 3.984C49.6599 3.984 49.9839 4.108 50.2639 4.356C50.3359 4.164 50.3879 4.044 50.4199 3.996C50.4599 3.948 50.5159 3.92 50.5879 3.912L51.1759 3.852L51.2119 3.876C51.0519 4.004 50.9359 4.204 50.8639 4.476C50.6159 5.404 50.4439 6.088 50.3479 6.528C50.2599 6.968 50.2159 7.356 50.2159 7.692C50.2159 8.028 50.2599 8.276 50.3479 8.436C50.4359 8.588 50.5839 8.664 50.7919 8.664C51.0479 8.664 51.3519 8.56 51.7039 8.352C52.0639 8.144 52.4039 7.856 52.7239 7.488C53.0439 7.112 53.2879 6.692 53.4559 6.228ZM48.1399 8.532C48.2759 8.532 48.4399 8.484 48.6319 8.388C48.8319 8.292 49.0159 8.156 49.1839 7.98C49.3599 7.796 49.4799 7.588 49.5439 7.356L49.7719 6.372C49.8039 6.212 49.8599 5.956 49.9399 5.604C50.0199 5.244 50.0839 4.968 50.1319 4.776C49.9079 4.552 49.6359 4.44 49.3159 4.44C49.0679 4.44 48.8439 4.508 48.6439 4.644C48.4439 4.772 48.2799 4.932 48.1519 5.124C48.0239 5.308 47.9439 5.472 47.9119 5.616L47.4319 7.752C47.4479 7.952 47.5279 8.132 47.6719 8.292C47.8159 8.452 47.9719 8.532 48.1399 8.532ZM59.1143 6.192C59.2343 6.224 59.2983 6.296 59.3063 6.408C59.3063 6.6 59.1543 6.92 58.8503 7.368C58.5463 7.808 58.1703 8.204 57.7223 8.556C57.2743 8.908 56.8263 9.084 56.3783 9.084C56.0743 9.084 55.8343 8.996 55.6583 8.82C55.4903 8.636 55.4063 8.392 55.4063 8.088C55.4063 7.984 55.4143 7.9 55.4303 7.836C55.2543 8.124 55.0223 8.396 54.7343 8.652C54.4543 8.9 54.1783 9.024 53.9063 9.024C53.6743 9.024 53.4463 8.932 53.2223 8.748C52.9983 8.564 52.8623 8.376 52.8143 8.184C52.8063 7.824 52.8543 7.412 52.9583 6.948C53.0703 6.484 53.3183 5.584 53.7023 4.248C53.7503 4.096 53.8063 4.02 53.8703 4.02C53.9343 4.02 54.0183 4.052 54.1223 4.116C54.2263 4.18 54.2783 4.244 54.2783 4.308C54.2783 4.34 54.2663 4.384 54.2423 4.44C54.2263 4.496 54.2143 4.54 54.2063 4.572C53.6943 6.3 53.4263 7.444 53.4023 8.004C53.4423 8.108 53.5263 8.216 53.6543 8.328C53.7903 8.432 53.9063 8.484 54.0023 8.484C54.1063 8.484 54.2503 8.424 54.4343 8.304C54.6183 8.176 54.8143 7.972 55.0223 7.692C55.2303 7.404 55.4223 7.032 55.5983 6.576C55.8063 6.024 56.0383 5.216 56.2943 4.152C56.3103 4.064 56.3543 4.02 56.4263 4.02C56.4903 4.02 56.5743 4.056 56.6783 4.128C56.7903 4.192 56.8463 4.268 56.8463 4.356C56.8463 4.428 56.8103 4.572 56.7383 4.788C56.6663 5.004 56.6223 5.14 56.6063 5.196C56.4143 5.756 56.2583 6.252 56.1383 6.684C56.0263 7.108 55.9703 7.488 55.9703 7.824C55.9703 8.344 56.1503 8.604 56.5103 8.604C56.7423 8.604 57.0103 8.508 57.3143 8.316C57.6183 8.116 57.9263 7.832 58.2383 7.464C58.5583 7.096 58.8503 6.672 59.1143 6.192ZM64.0065 4.716C64.0385 4.724 64.0665 4.748 64.0905 4.788C64.1145 4.828 64.1265 4.872 64.1265 4.92C64.1265 5.088 64.0465 5.252 63.8865 5.412C63.7345 5.564 63.5305 5.688 63.2745 5.784C63.0265 5.88 62.7745 5.928 62.5185 5.928C62.1185 5.928 61.7745 5.824 61.4865 5.616C61.2065 5.408 61.0265 5.116 60.9465 4.74C60.5865 4.78 60.2545 5.008 59.9505 5.424C59.6545 5.84 59.4465 6.292 59.3265 6.78C59.3105 6.86 59.2505 7.108 59.1465 7.524C59.0425 7.932 58.9425 8.416 58.8465 8.976C58.8385 9 58.8265 9.016 58.8105 9.024C58.8025 9.04 58.7785 9.048 58.7385 9.048C58.6825 9.048 58.5985 9.024 58.4865 8.976C58.3745 8.928 58.3185 8.876 58.3185 8.82C58.3185 8.708 58.3385 8.56 58.3785 8.376C58.8665 6.12 59.1825 4.724 59.3265 4.188C59.3425 4.116 59.3585 4.068 59.3745 4.044C59.3985 4.02 59.4345 4.008 59.4825 4.008C59.5145 4.008 59.5825 4.036 59.6865 4.092C59.7905 4.14 59.8745 4.192 59.9385 4.248L59.7225 4.944L59.6505 5.184C59.8345 4.896 60.0465 4.664 60.2865 4.488C60.5265 4.312 60.7825 4.224 61.0545 4.224C61.1345 4.224 61.2145 4.232 61.2945 4.248C61.3745 4.264 61.4305 4.284 61.4625 4.308C61.4625 4.7 61.5625 4.992 61.7625 5.184C61.9705 5.368 62.2585 5.46 62.6265 5.46C62.9545 5.46 63.2265 5.404 63.4425 5.292C63.6585 5.18 63.8465 4.988 64.0065 4.716ZM69.7919 6.228C69.8959 6.228 69.9479 6.332 69.9479 6.54C69.9479 6.908 69.7839 7.296 69.4559 7.704C69.1359 8.112 68.7439 8.456 68.2799 8.736C67.8239 9.008 67.4039 9.144 67.0199 9.144C66.7079 9.144 66.4679 9.048 66.2999 8.856C66.1319 8.664 66.0319 8.416 65.9999 8.112C65.7999 8.4 65.5479 8.636 65.2439 8.82C64.9399 9.004 64.6679 9.096 64.4279 9.096C64.2199 9.096 64.0119 9.028 63.8039 8.892C63.6039 8.748 63.4399 8.576 63.3119 8.376C63.1839 8.168 63.1159 7.972 63.1079 7.788L63.6959 5.364C63.7439 5.172 63.8639 4.968 64.0559 4.752C64.2559 4.528 64.4959 4.344 64.7759 4.2C65.0559 4.056 65.3399 3.984 65.6279 3.984C65.9959 3.984 66.3199 4.108 66.5999 4.356C66.6719 4.164 66.7239 4.044 66.7559 3.996C66.7959 3.948 66.8519 3.92 66.9239 3.912L67.5119 3.852L67.5479 3.876C67.3879 4.004 67.2719 4.204 67.1999 4.476C66.9519 5.404 66.7799 6.088 66.6839 6.528C66.5959 6.968 66.5519 7.356 66.5519 7.692C66.5519 8.028 66.5959 8.276 66.6839 8.436C66.7719 8.588 66.9199 8.664 67.1279 8.664C67.3839 8.664 67.6879 8.56 68.0399 8.352C68.3999 8.144 68.7399 7.856 69.0599 7.488C69.3799 7.112 69.6239 6.692 69.7919 6.228ZM64.4759 8.532C64.6119 8.532 64.7759 8.484 64.9679 8.388C65.1679 8.292 65.3519 8.156 65.5199 7.98C65.6959 7.796 65.8159 7.588 65.8799 7.356L66.1079 6.372C66.1399 6.212 66.1959 5.956 66.2759 5.604C66.3559 5.244 66.4199 4.968 66.4679 4.776C66.2439 4.552 65.9719 4.44 65.6519 4.44C65.4039 4.44 65.1799 4.508 64.9799 4.644C64.7799 4.772 64.6159 4.932 64.4879 5.124C64.3599 5.308 64.2799 5.472 64.2479 5.616L63.7679 7.752C63.7839 7.952 63.8639 8.132 64.0079 8.292C64.1519 8.452 64.3079 8.532 64.4759 8.532ZM75.0663 6.072C75.1463 6.072 75.2023 6.108 75.2343 6.18C75.2743 6.244 75.2943 6.32 75.2943 6.408C75.2943 6.696 75.1423 7.06 74.8383 7.5C74.5343 7.94 74.1463 8.324 73.6743 8.652C73.2103 8.98 72.7503 9.144 72.2943 9.144C72.0063 9.144 71.7823 9.072 71.6223 8.928C71.4703 8.784 71.3943 8.564 71.3943 8.268C71.3943 7.86 71.5063 7.308 71.7303 6.612C71.9543 5.908 72.1583 5.324 72.3423 4.86C72.3103 4.812 72.2783 4.788 72.2463 4.788C72.2143 4.788 72.1783 4.8 72.1383 4.824C71.9943 4.912 71.7583 5.108 71.4303 5.412C71.1023 5.716 70.7823 6.036 70.4703 6.372C70.1583 6.708 69.9463 6.98 69.8343 7.188C69.7063 7.532 69.6263 7.752 69.5943 7.848C69.5623 7.936 69.5303 8.084 69.4983 8.292L69.3903 8.832C69.3823 8.856 69.3743 8.888 69.3663 8.928C69.3583 8.96 69.3463 8.98 69.3303 8.988C69.3223 8.996 69.3063 9 69.2823 9C69.2103 9 69.1143 8.992 68.9943 8.976C68.8823 8.96 68.8263 8.936 68.8263 8.904C68.8263 8.808 68.8543 8.652 68.9103 8.436C68.9663 8.22 69.0223 8.024 69.0783 7.848C69.1343 7.672 69.1783 7.536 69.2103 7.44L69.3183 7.104C69.5503 6.304 69.7063 5.724 69.7863 5.364C69.8743 4.996 69.9583 4.588 70.0383 4.14C70.0463 4.06 70.1023 4.02 70.2063 4.02C70.2783 4.02 70.3583 4.04 70.4463 4.08C70.5423 4.112 70.5983 4.16 70.6143 4.224C70.5823 4.368 70.5223 4.612 70.4343 4.956C70.3543 5.3 70.2543 5.68 70.1343 6.096C70.5983 5.576 71.0783 5.104 71.5742 4.68C72.0783 4.256 72.4143 4.044 72.5823 4.044C72.6623 4.044 72.7583 4.084 72.8703 4.164C72.9823 4.244 73.0503 4.32 73.0743 4.392C72.8183 5.08 72.5743 5.832 72.3423 6.648C72.1103 7.456 71.9943 7.988 71.9943 8.244C71.9943 8.524 72.1543 8.664 72.4743 8.664C72.9463 8.664 73.4223 8.4 73.9023 7.872C74.3903 7.344 74.7783 6.744 75.0663 6.072ZM79.234 7.008C79.274 7.064 79.294 7.132 79.294 7.212C79.294 7.276 79.282 7.332 79.258 7.38C79.234 7.428 79.194 7.488 79.138 7.56C78.93 7.808 78.638 8.056 78.262 8.304C77.894 8.544 77.506 8.74 77.098 8.892C76.69 9.044 76.334 9.12 76.03 9.12C75.686 9.12 75.398 9.016 75.166 8.808C74.942 8.592 74.83 8.272 74.83 7.848C74.83 7.312 75.022 6.304 75.406 4.824L74.134 4.872C74.118 4.864 74.094 4.852 74.062 4.836C74.038 4.812 74.022 4.792 74.014 4.776C74.038 4.736 74.082 4.656 74.146 4.536C74.21 4.416 74.266 4.332 74.314 4.284L75.55 4.296C75.814 3.32 76.118 2.316 76.462 1.284C76.606 1.172 76.79 1.052 77.014 0.924C77.238 0.787999 77.374 0.719999 77.422 0.719999C77.494 0.751999 77.538 0.796 77.554 0.852C77.41 0.908 77.298 0.983999 77.218 1.08C77.138 1.168 77.058 1.316 76.978 1.524C76.746 2.116 76.466 3.04 76.138 4.296L79.198 4.308L79.21 4.5C79.21 4.564 79.198 4.608 79.174 4.632C79.15 4.656 79.094 4.672 79.006 4.68C78.894 4.688 77.894 4.728 76.006 4.8C75.638 6.304 75.454 7.308 75.454 7.812C75.454 8.092 75.522 8.3 75.658 8.436C75.794 8.564 76.002 8.628 76.282 8.628C77.098 8.628 78.082 8.088 79.234 7.008Z" fill="white"/>
</svg>
